<?xml version="1.0" standalone="no"?>
<!DOCTYPE svg PUBLIC "-//W3C//DTD SVG 20010904//EN"
 "http://www.w3.org/TR/2001/REC-SVG-20010904/DTD/svg10.dtd">
<svg version="1.0" xmlns="http://www.w3.org/2000/svg"
 width="500.000000pt" height="500.000000pt" viewBox="0 0 500.000000 500.000000"
 preserveAspectRatio="xMidYMid meet">

<g transform="translate(0.000000,500.000000) scale(0.100000,-0.100000)"
fill="#000000" stroke="none">
<path d="M3015 2990 c-4 -6 6 -10 24 -10 l31 0 0 -345 0 -345 -24 0 c-14 0
-28 -4 -31 -10 -4 -6 45 -10 139 -10 91 0 146 4 146 10 0 6 -11 10 -25 10
l-25 0 -2 353 -3 352 -112 3 c-69 2 -114 -1 -118 -8z"/>
<path d="M474 2726 c-17 -7 -40 -26 -52 -41 l-22 -28 0 37 0 36 -120 0 c-73 0
-120 -4 -120 -10 0 -5 14 -10 30 -10 l30 0 0 -210 0 -210 -24 0 c-14 0 -28 -4
-31 -10 -4 -6 42 -10 129 -10 84 0 136 4 136 10 0 6 -7 10 -15 10 -13 0 -15
24 -15 160 0 171 12 223 53 236 37 12 42 -10 45 -206 3 -165 2 -190 -12 -190
-8 0 -18 -4 -21 -10 -4 -6 38 -10 119 -10 77 0 126 4 126 10 0 6 -7 10 -15 10
-24 0 -22 311 3 360 12 26 23 35 42 35 34 0 37 -22 39 -227 1 -140 -1 -168
-13 -168 -8 0 -18 -4 -21 -10 -4 -6 42 -10 129 -10 84 0 136 4 136 10 0 6 -11
10 -24 10 l-24 0 -4 173 c-4 186 -10 213 -59 250 -62 45 -170 27 -206 -34 -18
-31 -33 -38 -33 -16 0 7 -13 26 -30 42 -35 33 -107 43 -156 21z"/>
<path d="M1157 2726 c-62 -17 -87 -42 -94 -95 -5 -35 -2 -46 17 -66 60 -64
175 -1 144 79 -3 9 -13 16 -21 16 -10 0 -13 8 -11 26 4 36 40 49 67 26 17 -14
21 -34 27 -114 l7 -96 -69 -7 c-144 -14 -187 -41 -187 -117 0 -82 44 -118 143
-118 43 0 56 5 80 28 l28 29 26 -26 c21 -20 37 -26 88 -28 96 -6 126 18 142
110 4 23 3 37 -4 37 -5 0 -10 -11 -10 -24 0 -42 -18 -78 -38 -74 -15 3 -18 21
-23 158 -6 180 -18 218 -77 246 -48 23 -172 28 -235 10z m132 -298 c0 -73 -19
-123 -44 -123 -18 0 -20 8 -23 63 -3 71 14 112 48 112 17 0 20 -7 19 -52z"/>
<path d="M1863 2726 c-18 -8 -42 -30 -53 -48 l-20 -33 0 43 0 42 -115 0 c-70
0 -115 -4 -115 -10 0 -5 11 -10 25 -10 l25 0 0 -210 0 -210 -25 0 c-14 0 -25
-4 -25 -10 0 -6 57 -10 150 -10 93 0 150 4 150 10 0 6 -16 10 -35 10 l-35 0 0
148 c1 152 11 204 46 243 24 26 69 22 69 -6 0 -13 -8 -21 -22 -23 -18 -3 -23
-10 -23 -32 0 -46 31 -75 80 -75 56 0 80 29 80 94 0 37 -5 52 -24 70 -30 28
-91 36 -133 17z"/>
<path d="M2695 2731 c-79 -20 -146 -82 -166 -153 -15 -58 -6 -155 20 -205 38
-76 111 -113 221 -113 77 0 121 15 157 52 33 35 58 86 47 97 -4 3 -8 1 -11 -4
-25 -72 -80 -115 -144 -115 -73 0 -109 57 -109 173 l0 57 135 0 135 0 0 28 c0
45 -19 100 -46 132 -41 48 -151 72 -239 51z m95 -25 c6 -8 14 -49 17 -90 l6
-76 -53 0 -52 0 4 74 c2 42 9 80 17 90 17 20 45 21 61 2z"/>
<path d="M3504 2731 c-141 -37 -206 -170 -159 -327 27 -92 110 -144 229 -144
89 0 135 16 182 64 48 47 64 93 64 182 0 150 -67 222 -214 229 -39 3 -85 1
-102 -4z m113 -38 c16 -23 18 -51 18 -198 -1 -195 -7 -218 -58 -213 -52 5 -58
29 -55 229 3 189 8 209 54 209 15 0 30 -10 41 -27z"/>
<path d="M4564 2729 c-35 -10 -82 -53 -95 -87 -5 -13 -9 -46 -9 -74 0 -45 4
-54 38 -88 27 -28 55 -43 97 -55 33 -8 79 -25 103 -35 35 -17 42 -24 42 -49 0
-39 -21 -54 -84 -59 -77 -6 -123 20 -164 95 l-31 58 -1 -89 c0 -88 0 -89 20
-71 19 17 22 17 76 0 71 -22 163 -17 201 11 50 38 66 69 67 132 1 97 -35 133
-182 178 -66 20 -85 31 -95 51 -10 23 -8 28 16 49 57 49 151 20 202 -62 l30
-48 3 73 c3 81 -1 94 -22 66 -13 -19 -16 -19 -68 -2 -60 19 -96 20 -144 6z"/>
<path d="M2010 2720 c0 -5 10 -10 23 -10 19 0 32 -25 108 -218 l87 -217 58 0
59 0 70 218 c64 198 72 217 92 217 13 0 23 5 23 10 0 6 -28 10 -65 10 -37 0
-65 -4 -65 -10 0 -5 14 -10 31 -10 22 0 30 -4 26 -13 -3 -8 -24 -74 -47 -148
-23 -74 -45 -137 -49 -141 -4 -4 -32 61 -62 145 l-56 152 29 3 c15 2 28 7 28
13 0 5 -62 9 -145 9 -90 0 -145 -4 -145 -10z"/>
<path d="M3840 2720 c0 -5 14 -10 30 -10 l30 0 0 -175 c0 -196 6 -221 63 -255
36 -22 124 -27 160 -9 12 6 32 23 44 37 l23 27 0 -32 0 -33 116 0 c74 0 113 4
109 10 -3 6 -17 10 -31 10 l-24 0 0 220 0 220 -110 0 c-67 0 -110 -4 -110 -10
0 -5 9 -10 20 -10 19 0 20 -7 20 -170 0 -183 -8 -222 -50 -235 -46 -15 -50 3
-50 221 l0 204 -120 0 c-73 0 -120 -4 -120 -10z"/>
<path d="M3360 1666 c0 -226 1 -236 18 -227 10 5 25 17 32 26 7 9 26 25 41 36
l27 19 38 -100 c22 -56 44 -100 52 -100 7 0 31 9 52 20 l40 20 -45 90 c-25 49
-45 92 -45 95 0 3 32 5 71 5 39 0 69 3 67 8 -1 4 -81 83 -175 176 l-173 169 0
-237z m230 -84 c-33 -2 -60 -5 -60 -8 0 -2 22 -49 50 -104 l50 -100 -29 -15
-30 -15 -42 110 -42 110 -54 -46 -53 -46 0 194 0 193 135 -135 135 -135 -60
-3z"/>
</g>
</svg>
